<?xml version="1.0" encoding="UTF-8"?>
<svg id="Layer_1" xmlns="http://www.w3.org/2000/svg" version="1.1" viewBox="0 0 1000 1000">
  <!-- Generator: Adobe Illustrator 30.2.1, SVG Export Plug-In . SVG Version: 2.1.1 Build 1)  -->
  <defs>
    <style>
      .st0 {
        fill: #fff;
      }

      .st1 {
        fill: #fa622e;
      }
    </style>
  </defs>
  <path class="st0" d="M740.58,661.24c-25.77-5.21-41.91-27.67-40.16-54.38.16-2.44.47-4.84.92-7.18l-98.15-.37c-3.36-.01-6.67-.66-9.76-1.88-9.04,4-18.75,5.93-29.55,5.89-7.87-.03-16.27-1.15-25.67-3.42-11.57-2.79-22.15-7.24-31.59-13.25-4.64,7.38-12.94,12.25-22.31,12.21l-128.73-.49c-8.81-.03-16.69-4.29-21.51-10.98-14.46,9.46-31.26,14.38-49.14,14.31-22.9-.09-45.08-8.57-62.05-23.52-1.6,1.56-3.29,3.05-5.05,4.46-4.89,3.93-22.42,15.12-38.22,15.06l-93.16-.35c-14.51-.05-25.49-11.75-25.55-26.08l-.77-207.94c-.05-14.33,12.58-25.91,27.1-25.85l74.9.28c13.45.06,24.72,10.11,26.23,23.31,1.59,13.94,3.41,28.16,5.05,40.76,2.28.94,4.5,2.01,6.64,3.21,3.05-3.19,6.92-5.61,11.38-7.05,2.66-.86,5.44-1.19,8.25-1.18,0,0,215.69.81,215.78.81,1.35,0,2.71-.19,4.04.02,20.81,3.27,39.43,13.29,52.45,27.59,17.47-18.06,40.49-28.34,67.15-29.89,1.99-.12,4.06-.17,6.13-.16,21.89.08,44.05,7.3,62.61,20.14,3.83-9.55,13.28-16.59,24.32-16.58,7.63,0,202.96.08,210.21.79,25.41,2.47,49.23,17.03,62.16,38.44,13.25,21.95,14.98,47.56,4.92,70.84,1.75,3.71,6.08,12.1,6.11,19.27,0,0-.33,83.5.33,88.37,1.94,14.28-2.88,28.22-14.2,37.3-1.21.96-11.91,8.14-24.36,8.09,0,0-152.84.2-156.74-.59Z"/>
  <path class="st1" d="M782.92,651.35c-31.34-.12-39-.31-40.84-.4-20.07-4.32-32.57-21.67-31.15-43.34.13-2,.38-3.99.75-5.92l2.37-12.35-110.9-.42c-2.02,0-3.99-.39-5.86-1.13l-4.16-1.65-4.07,1.8c-7.66,3.39-15.92,5.02-25.23,4.99-7.03-.03-14.62-1.05-23.21-3.12-10.38-2.51-19.92-6.5-28.36-11.87l-9-5.74-5.61,8.93c-2.91,4.62-7.91,7.37-13.4,7.35l-128.73-.49c-5.13-.02-9.96-2.47-12.91-6.57l-5.94-8.25-8.49,5.55c-12.69,8.3-27.66,12.66-43.32,12.6-20.3-.08-39.85-7.49-55.04-20.86l-7.4-6.52-7,6.83c-1.35,1.32-2.8,2.6-4.3,3.8-5.01,4.02-19.9,12.8-31.58,12.76l-93.16-.35c-8.5-.03-14.94-6.76-14.98-15.65l-.77-207.93c-.03-8.29,7.73-15.53,16.61-15.49l74.9.28c8.05.04,14.82,6.06,15.72,14,1.62,14.22,3.47,28.67,5.07,40.92l.78,6.01,5.67,2.33c1.88.77,3.72,1.66,5.48,2.65l7.19,4.03,5.63-5.9c1.89-1.98,4.25-3.43,7.03-4.33,1.41-.46,3.03-.67,4.95-.67l215.78.81c.63,0,1.26-.02,1.89-.05.25-.01.5-.03.75-.03,18.09,2.89,34.43,11.48,46.01,24.2l7.63,8.38,7.82-8.08c15.58-16.1,36.4-25.34,60.21-26.72,1.78-.1,3.61-.15,5.48-.15,19.58.07,39.67,6.55,56.57,18.24l10.91,7.55,4.88-12.16c2.42-6.03,8.29-10.08,14.6-10.07h1.75c28.23.02,99.45.07,150.83.27,45.85.17,55.21.38,56.72.48,22.13,2.16,42.86,14.94,53.98,33.36,11.41,18.9,12.97,41.29,4.27,61.42l-1.84,4.26,2.5,5.28c1.49,3.11,4.6,9.58,4.61,13.84-.1,25.24-.26,84.68.42,89.71,1.51,11.14-2.25,21.27-10.32,27.81-.65.45-8.82,5.92-17.84,5.88-.73,0-68.49.09-114.37-.09Z"/>
  <g>
    <path class="st0" d="M900.9,606.96c-.06-.26,2.32-2.21,2.77-2.77,6.37-7.93,1.29-19.8-8.94-20.67l-30.9-.12c-.09.23-.36.44-.26.81l.21,52.52,33.46.13c2.05,0,6.15-2.04,7.77-3.34,9.39-7.53,6.65-21.74-4.11-26.56ZM884.96,596.26c1.14-.34,2.06.12,2.26,1.3.12.74.13,3.32-.02,4.02-.37,1.66-2.79,1.96-3.09-.22-.15-1.08-.37-4.73.86-5.09ZM884.96,624.14c-1.22-.57-1.06-5.51-.26-6.25.54-.5,1.75-.37,2.24.19.7.8,1.25,7.55-1.98,6.05Z"/>
    <path class="st0" d="M570.89,494.93l74.6.28c1.03-42.85-43.31-76.33-84.65-73.93-87.15,5.06-100.49,133.09-16.56,153.36,23.81,5.75,40.98,2.92,56.74-15.39.25-.29.8-1.38,1-1.33,2.28.57.58,12.65,1.08,15.38l42.68.16-.26-68.97-74.6-.28.09,23.81c.01,3.01-10.68,3.55-10.63-.75.23-18.2-.24-37.84-.21-55.52.01-5.34,10.16-5.7,10.62-1.63.56,4.91-.29,18.47.09,24.79Z"/>
    <path class="st0" d="M840.05,532.4c-.02-4.07,8.12-2.45,8.13.03l.16,41.81,60.3.23-.17-46.49c0-1.53-2.29-7.31-3.16-8.97-1.73-3.32-4.48-5.84-7-8.56,13.05-17.77,15.3-40,3.64-59.3-8.67-14.35-25.08-24.39-41.97-26.04-24.63-2.4-55.59.36-80.62.37l.55,148.5,60.3.23-.16-41.81ZM838,475.27c-.41-3-1.03-13.16,2.38-14.18,3.17-.95,5.73.32,6.28,3.61.35,2.05.37,9.24-.06,11.19-1.03,4.63-7.77,5.46-8.6-.62Z"/>
    <path class="st0" d="M435.54,423.51l-79.94.37c-.26.64-1.01,1.23-.72,2.26l.59,146.24,60.3.23-.16-41.81c0-2.4,8.12-3.78,8.13.03l.16,41.81,60.3.23-.18-47.83c0-1.51-3.18-8.34-4.21-9.94-1.45-2.25-3.83-4.64-6.01-6.17,25.9-36.22,5.65-78.51-38.26-85.41ZM422.35,474.3c-1.03,4.63-7.77,5.46-8.6-.62-.41-3-1.03-13.16,2.38-14.18,3.17-.95,5.73.32,6.28,3.61.35,2.05.37,9.24-.06,11.19Z"/>
    <path class="st0" d="M189.7,488.47c-.18-.73,6.46-6.16,7.7-7.71,17.73-22.09,3.58-55.14-24.89-57.56l-86.04-.32c-.26.64-1.01,1.23-.72,2.26l.59,146.24,93.16.35c5.71.02,17.13-5.69,21.63-9.3,26.15-20.96,18.52-60.54-11.44-73.95ZM145.34,458.67c3.17-.95,5.73.32,6.28,3.61.35,2.05.37,9.24-.06,11.19-1.03,4.63-7.77,5.46-8.6-.62-.41-3-1.03-13.16,2.38-14.18ZM145.32,536.31c-3.39-1.58-2.95-15.34-.73-17.39,1.5-1.39,4.88-1.02,6.24.54,1.96,2.24,3.47,21.03-5.51,16.85Z"/>
    <path class="st0" d="M347.82,423.85l-60.3-.23.05,107.68c-2.24,3.44-7.31,2.55-7.82-1.65l-.36-106.73-59.62-.22c-1,.32-.61.89-.7,1.63,1.93,30.04-2.09,62.64.35,92.37,4.93,60.15,85.06,81.23,118.57,30.4,19.95-30.26,5.72-87.86,9.83-123.25Z"/>
    <path class="st0" d="M860.73,583.62l-20.97-.08.02,37.45c-.78,1.2-2.54.89-2.72-.57l-.13-37.11-20.73-.08c-.35.11-.21.31-.24.57.67,10.45-.73,21.78.12,32.12.12,1.43.37,2.8.72,4.1l-12.27-.05-.13-35.79c0-.07-.95-1.01-1.02-1.01l-19.99-.08.19,52.17,34.89.13c1.52-2.15,1.41-5.61,1.53-8.56,8.43,11.92,28.02,13.73,37.31-.36,6.94-10.52,1.99-30.55,3.42-42.86Z"/>
    <path class="st0" d="M775.35,529.15l-59.28-.22c-3.05-.01-4.94-7.06-.58-7.87l39.41-.11,6.03-42.7-45.73-.17c-2.56,0-4.47-7.06,1.37-7.98l52.43.12,5.96-44.76c-40.86,0-81.77-.43-122.63-.46l.55,148.5,116.53.44,5.93-44.79Z"/>
    <path class="st0" d="M144.09,415.91l-.04-11.7c0-1.15,2.71-1.14,2.71.01l.04,11.7,22.18.08s-1.06-6.23-1.21-7.36c-1.95-14.93-3.88-29.89-5.58-44.84l-32.79-.16-4.93,36.74-16.02-.06-.13-35.79c0-.07-.95-1.01-1.02-1.01l-19.99-.08.19,52.18,34.9.21,21.68.08ZM144.28,378.05c1.88-.56,3.4.19,3.73,2.14.21,1.22.22,5.48-.04,6.64-.61,2.75-4.61,3.24-5.1-.37-.24-1.78-.61-7.81,1.41-8.41Z"/>
    <path class="st0" d="M755.9,611.83l.03,7.27c0,1.01-4.86,1.19-4.85-.26.08-6.12-.08-12.72-.07-18.66,0-1.8,4.69-1.91,4.84-.54.19,1.65-.1,5.1.03,7.23l23.8.09c.35-14.4-14.55-24.55-28.45-23.75-29.29,1.7-34.01,45.8-5.57,51.55,9.73,1.97,23.9-.3,28.95-6.65,7.13-8.96,5.09-16.19,5.09-16.19l-23.8-.09Z"/>
  </g>
</svg>