<?xml version="1.0" encoding="UTF-8"?>
<svg id="Layer_1" xmlns="http://www.w3.org/2000/svg" version="1.1" viewBox="0 0 1000 1000">
  <!-- Generator: Adobe Illustrator 30.2.1, SVG Export Plug-In . SVG Version: 2.1.1 Build 1)  -->
  <defs>
    <style>
      .st0 {
        fill: #fff;
      }
    </style>
  </defs>
  <path d="M615.42,406.72c3.02,1.14,5.65,3.65,9.04,4.13,8.07-10.19,70.17-17.84,93.28-5.84,2.37,1.23,8.18,6.76,9.94,6.6,0,0,10.15-6.03,11.13-6.49,21.27-10.03,53.09-12.07,75.24-2.86,2.44,1.02,12.87,7.69,13.65,7.29,21.8-11.39,48.74-17.29,62.66-16.42,18.23,1.14,39.78,19.04,47.57,34.01,9.21,17.7,9.7,34.27,9.22,54.24-.31,13-6.33,48.91-6.13,84.67.2,34.4,25.82,53.65,16.47,61.58-85.65,16.04-130.67-6.83-136.68-13.05-.42-.07-19.93,19.02-45.61,24-22.7,4.4-51.88-5.18-53.18-5.94-2.57,1.87-26.46,12.3-48.43,12.21-20.58-.09-39.37-10.61-40.13-11.37-1.1,2.3-49.7,15.98-96.86,18.29-43.65,2.13-86.04-7.02-89.18-6.94-2.77.07-64.41,13.14-142.33,21.23-115.8,12.03-263.33,7.05-263.34,4.34-.04-9.88,31.93-62.89,35.85-128.49,2.93-49.07-22.99-137.52-27.67-154.79,0,0,80.34,1.85,86.61,1.6,16.14-.65,33.66,13.45,46.26,25.42,3.37,3.2,13.25-34.8,85.83-35.92,11.54-.18,141.6-8.94,144.36-6.96.99.71-13.39,31.96-9.32,38.47.58.93,34.51-7.85,34.51-7.85,17.9-2.46,38.13-4.38,52.71,7.91,0,0,72.57-22.66,124.52-3.07Z"/>
  <path class="st0" d="M385.37,386.73c-.01,2.22-11.02,64.91-12.97,114.44-2.33,59.14,1.78,120.72,1.97,121.21,1.94,4.79,13.49,13.31,12.14,14.1-3.92,2.3-26.07,4.45-34.77,4.57,0,0-83.66,7.09-89.7,7.86-7.56.96-45.54,2.07-52.46,2.85-.83.09-7.82-.24-8.27-.81-.62-.79-.72-2.38-.5-3.33.1-.44,5.61-8.56,9.87-12.82,10.66-10.64,15.65-128.32,8.78-153.83-1.37-5.08-6.5,15.46-7.8,22.17-.91,4.68-37.85,157.75-47.52,154.27-6.59-2.37-10.32-43.78-13.77-60.5-3.94-19.08-11.3-61.73-13.36-63.4-2.82-2.29-4.33,1.06-4.82,3.63-1,5.2-4.92,76.55-5.11,80.81-.14,3.32,7.41,38.86,11.71,39.95,5.43,1.38-67.07,3.13-67.07,1.68,0-4.54,7.19-7.14,10.26-9.52,5.89-4.57,18.13-56.38,20.65-110.22,2.68-57.28-4.58-116.67-5.68-117.94-.74-.86-16.76-11.56-4.71-13.33,2.91-.43,61.37-2.37,62.95-2.23,5.08.48,8.2,4.01,6.68,9.1-.41.72-4.56.13-5.57,3.62-.14.48-2.78,15.35-.27,26.98,6.43,29.88,22.76,75.35,24.37,74.68,4.06-1.7,33-90.09,35.47-99.7.41-1.6,1.06-4.59,1.08-6.15.01-.75-1.82-4.81-2.29-5.3-.96-1.01-7.17-3.41-7.55-4.02-.19-.3-.72-1.82-.1-3.41.47-1.2,4.49-1.59,4.49-1.59,0,0,51.52-2.61,56.12-2.57,22.73.17,9.69,2.93,1.56,15.38-3.31,5.07-12.49,174.69-12.49,176.66,0,1.33.06,5.57-.04,7.23-.2,3.34-1.88,39.14,8.79,39.24,16.4.15,13.05-23.42,13.81-36.96,1.97-34.72,6.91-117.96,6.52-124.74-.55-9.51,2.89-19.01-3.52-26.72-1.88-2.26-5.05-2.22-5.27-5.73,0,0,46.89-6.35,47.72-5.11.47,5.12-.86,10.37-1.12,15.55-.74,14.48-2.04,28.93-2.04,43.49,0,5.07-.79,11.8-1.05,17.97-.31,7.41-2.02,31.94-2.27,36.23-1.06,18.52-4.38,73.7-2.34,77.31.57,1,1.67,1.9,2.97,2.73,4.17,2.63,9.64,1.3,12.31-2.85,2.43-3.78,4.06-7.73,4.5-12.9,1.02-11.9,10.73-156.13,7.19-215.45-1.53-3.78-6.21-10.24-5.92-14.11.24-3.17,4.68-3.05,7.34-3.87,1.12-.34,26.73-2.22,34.58-1.54.53.05,4.08-.13,5.5,1.34,1.57,1.62.98,4.93.98,5.6Z"/>
  <path class="st0" d="M597.79,424.31c14.7,12.9,10.12,151.2,9.4,163.59-.48,8.37,16.19,33.35,16.87,34.14,1.84,2.14.98,4.65-4.67,5.15-14.15,1.26-45.69,3.08-46.66,1.81-4.15-8.01,5.25-159.65,3.6-163.74-.28-.68-3.67-9.3-4.3-10.12-2.71-3.5-7.85-3.47-11.27-1.27-4.86,3.14-11.21,12.96-12.57,18.59-1.69,6.96-8.6,120.87-8.76,131.22-.04,2.63.31,9.25.86,11.61,1.04,4.48,12.65,10.7,7.5,14.24-10.94,7.5-74.1,4.44-88.47,3.52-4.04-.26-11.36-9.46-12.06-9.36-2.63,3.97-5.88,8.47-10,11-17.92,11.05-43.44-3.12-50.03-21.56-10.28-28.78-1.07-77.22,24.16-96.31,11.81-8.94,42.33-21.32,43.99-23.31-.55-2.41.52-22.62-.14-27.95-.51-4.21-3.75-9.69-8.2-10.47-3.93-.69-11.17.94-14.45,3.35-2.54,1.87-4.41,7.06-5.63,10.17-1.28,3.25-3.66,20.57-16.45,21.92-22.9,2.41-5.56-43.76-3.54-49.25,3.94-10.71,9.49-14.85,20.51-17.87,29.75-8.14,59.47,3.83,63.18,36.89.29,2.56-2.4,36.73-2.41,38.51-.04,5.48-2.77,52.85-3.75,71.48-.59,11.24-3.64,31.79.06,42.02,1.69,4.68,4.72,8.43,10.04,8.65,2.97-1.65,4.46-4.22,5.63-7.41,3.11-8.48,2.56-18.46,3.12-27.36,1.65-26.2,3.09-52.44,4.73-78.92,1.28-20.69,3.75-41.26,2.05-62.21-.17-2.11-1.63-7.62-3.03-9.1-3-3.17-10.87-3.11-9.92-8.05,1.66-.39,47.21-8.86,49.12-6.12,1.49,2.13,2.33,8.9,2.45,8.89,4.56-.54,12.74-9.39,18.11-10.12,24.42-3.34,30.62,3.46,30.92,3.73ZM443.15,601.57c3.61-3.82,4.69-12.68,5.11-17.41,1.31-14.88,2.43-35.87,1.44-50.41-.1-1.51-.37-4.65-1.98-4.84-3.73-.43-9.78,7.92-10.67,8.91-11.31,12.43-19.41,56.37-12.65,61.3,2.51,1.83,18.52,2.68,18.75,2.45Z"/>
  <path class="st0" d="M924.07,588.93c1.2,8,9.29,11.85,14.12,17.36,1.8,3.51.88,7.31-3.4,7.81-2.39.28-33.56,4.43-41.61-2.74-.66-.59-4.78-5.41-6.16-4.72-19.99,10.08-49.25,1.61-56.59-15.65-3.99-9.38-2.33-34.52-1.11-45.23.97-8.52,6.94-22.35,11.3-29.79,11.64-19.86,51.85-30.23,52.71-30.82,2.11-1.44-.11-25.33-.68-33.69-1.7-24.93-22.13-10.82-23.68-2.57-7.5,39.96-21.75,26.24-23.33,13.46-1.44-11.61-2.65-23.93,4.03-34.41,3.36-5.27,24.97-19.23,43.36-14.67,10.77,2.67,21.96,6.19,26.65,16.36,10.18,22.07,3.39,152.61,4.39,159.31ZM886.66,558.01c.33-7.16,1.4-15.26,1.96-22.61.22-2.93,3.19-15.15-1.25-15.96-3.37-.62-11.62,9.08-14.52,13.51-5.64,8.62-9.24,19.98-8.78,30.18.19,4.07,1.13,18.54,5.56,19.74,7.98,2.17,16.51-13.44,17.03-24.86Z"/>
  <path class="st0" d="M704.31,528.67c-12.28,4.63-41.23,5.82-43.19,9.86-3.32,6.84-5.66,29.82-5.5,32.17.3,4.39.76,11.43,2.64,15.29,2.08,4.28,4.23,7.39,8.83,10.28,7.95,5,24.92-1.18,25.7-1.71,3.11-2.11,4.36-14.45,5.13-18.11.66-3.15,1.11-6.44,1.72-9.62.46-2.36-.52-3.64,1.52-6.33,1.8-2.38,4.05-2.74,5.08-2.85,3.06-.34,8.49.31,10.16,2.34,1.96,2.37,4.15,43.15-8.69,55.46-.39.38-7.77,6.26-15.52,9.16-7.69,2.87-43.15,1.98-53.15-9.81-6.78-8-13.97-18.73-16.44-29.31-.33-1.4.88-56.47,2.67-76.6.83-9.31,1.7-18.77,2.59-28.01,1.71-17.9,5.78-47.93,23.99-53.22,96.6-28.06,68.06,95.14,52.47,101.02ZM685.98,500.76c2.52-2.46,3.15-44.16,2.7-45.79-4.33-15.56-17.24-1.8-17.52-1.52-7.47,7.14-13.37,45.18-8.69,53.1,12.05,8.43,17.66-.07,23.52-5.79Z"/>
  <path class="st0" d="M825.91,444.32c2.28,5.3,1.03,17.49-.94,23.26-4.12,12.03-18.7,11.54-22.75-6.97-1.21-5.55-1.71-11.13-12.68-14.15-3.7-1.02-24.37,2.05-18.63,29.65.64,3.06,11.46,19.17,14.06,21.5,13.36,11.91,29.22,39.33,30.04,41.08,4.31,9.18,8.96,25.95,7.73,36.17-3.06,25.43-29.84,40.24-34.81,42.51-16.05,7.33-37.79,7.71-51.89-4.51-.54-.47-5.41-4.69-7.84-11.07-4.03-10.6-.41-40.75-.04-43.35.99-6.95,16.43-13.62,18.54,3.36,6.62,53.41,38.56,24.53,39.35,14.17,1.23-16.08-12.18-35.66-21.95-47.9-1.41-1.77-10.66-12.56-10.97-13.25-.73-1.67-4.55-5.34-5.73-7.02-5.01-7.17-8.92-14.21-11.35-22.8-7.91-28.03,12.75-55.66,22.58-61.19,11-6.18,27.32-9.26,39.33-5.8,1.75.5,18.37,4.04,27.95,26.3Z"/>
  <circle class="st0" cx="305.1" cy="405.32" r="18.19"/>
</svg>