<?xml version="1.0" encoding="UTF-8"?>
<svg id="Layer_1" xmlns="http://www.w3.org/2000/svg" version="1.1" viewBox="0 0 1000 1000">
  <!-- Generator: Adobe Illustrator 30.2.1, SVG Export Plug-In . SVG Version: 2.1.1 Build 1)  -->
  <defs>
    <style>
      .st0 {
        fill: #f7e2ad;
      }
    </style>
  </defs>
  <g>
    <path class="st0" d="M23.5,394.29v127.14h70.91v10.43H12.1v-137.58h11.4Z"/>
    <path class="st0" d="M188.9,522.97h5.22v8.89c-2.19.38-4.57.58-7.15.58-5.41,0-9.34-1.32-11.79-3.96-2.45-2.64-3.67-6.73-3.67-12.27v-1.35c-6.7,12.88-18.74,19.32-36.13,19.32-10.69,0-18.97-2.54-24.83-7.63-5.86-5.09-8.79-12.08-8.79-20.97,0-17.26,11.85-27.31,35.55-30.14l15.46-1.74c6.83-.9,11.6-2.58,14.3-5.02s4.06-6.19,4.06-11.21c0-12.11-8.57-18.17-25.7-18.17-9.92,0-17.1,1.74-21.54,5.22-4.45,3.48-6.86,9.34-7.25,17.58h-10.63c.64-21.51,13.78-32.27,39.42-32.27,12.11,0,21.19,2.42,27.24,7.25,6.05,4.83,9.08,11.63,9.08,20.39v58.35c0,4.77,2.38,7.15,7.15,7.15ZM135.96,524.91c9.92,0,18.29-2.83,25.12-8.5,6.7-5.54,10.05-13.85,10.05-24.93v-15.07c-3.22,3.22-8.76,5.28-16.62,6.19l-15.46,1.93c-9.15,1.16-15.75,3.38-19.81,6.67-4.06,3.28-6.09,8.02-6.09,14.2s1.93,10.82,5.8,14.3c3.86,3.48,9.53,5.22,17,5.22Z"/>
    <path class="st0" d="M287.63,534.18c-13.66,0-24.54-4.7-32.66-14.1-8.25-9.4-12.37-22.09-12.37-38.06s4.12-28.66,12.37-38.06c8.11-9.4,19-14.11,32.66-14.11,11.21,0,20.55,3.22,28.02,9.66,7.47,6.44,11.98,14.94,13.53,25.5h-11.21c-1.55-7.85-5.06-14.04-10.53-18.55-5.48-4.51-12.08-6.76-19.81-6.76-10.18,0-18.33,3.74-24.45,11.21s-9.18,17.84-9.18,31.11,3.06,23.64,9.18,31.11c6.12,7.47,14.27,11.21,24.45,11.21,7.85,0,14.59-2.42,20.19-7.24,5.61-4.83,9.05-11.3,10.34-19.42h11.21c-1.29,10.56-5.8,19.32-13.53,26.28-7.86,6.83-17.26,10.24-28.21,10.24Z"/>
    <path class="st0" d="M388.11,534.18c-13.79,0-24.93-4.83-33.43-14.49-8.63-9.4-12.95-21.96-12.95-37.68s4.31-28.34,12.95-37.87c8.5-9.53,19.64-14.3,33.43-14.3s25.05,4.77,33.81,14.3c8.5,9.66,12.75,22.29,12.75,37.87s-4.25,28.28-12.75,37.68c-8.76,9.66-20.03,14.49-33.81,14.49ZM362.6,512.73c6.31,7.73,14.81,11.59,25.51,11.59s19.25-3.86,25.7-11.59c6.31-7.47,9.47-17.71,9.47-30.72s-3.16-23.31-9.47-30.92c-6.45-7.6-15.01-11.4-25.7-11.4s-19.07,3.8-25.51,11.4c-6.31,7.6-9.47,17.91-9.47,30.92s3.16,23.25,9.47,30.72Z"/>
    <path class="st0" d="M493.99,534.18c-13.66,0-24.54-4.7-32.66-14.1-8.25-9.4-12.37-22.09-12.37-38.06s4.12-28.66,12.37-38.06c8.11-9.4,19-14.11,32.66-14.11,11.21,0,20.55,3.22,28.02,9.66,7.47,6.44,11.98,14.94,13.53,25.5h-11.21c-1.55-7.85-5.06-14.04-10.53-18.55-5.48-4.51-12.08-6.76-19.81-6.76-10.18,0-18.33,3.74-24.45,11.21-6.12,7.47-9.18,17.84-9.18,31.11s3.06,23.64,9.18,31.11c6.12,7.47,14.27,11.21,24.45,11.21,7.85,0,14.59-2.42,20.19-7.24,5.61-4.83,9.05-11.3,10.34-19.42h11.21c-1.29,10.56-5.8,19.32-13.53,26.28-7.86,6.83-17.26,10.24-28.21,10.24Z"/>
    <path class="st0" d="M563.74,417.09h-11.59v-18.16h11.59v18.16ZM563.55,531.86h-11.01v-99.7h11.01v99.7Z"/>
    <path class="st0" d="M630.4,429.84c11.21,0,19.9,3.16,26.08,9.47,6.18,6.32,9.28,15.27,9.28,26.86v65.7h-11.01v-64.73c0-18.29-8.82-27.44-26.47-27.44-8.11,0-15.2,3.09-21.25,9.28-5.93,6.18-9.02,15.2-9.28,27.05v55.84h-11.01v-99.7h10.43v18.55c3.22-6.57,7.73-11.69,13.53-15.36,5.8-3.67,12.37-5.51,19.71-5.51Z"/>
    <path class="st0" d="M770.29,522.97h5.22v8.89c-2.19.38-4.58.58-7.15.58-5.41,0-9.34-1.32-11.78-3.96-2.45-2.64-3.67-6.73-3.67-12.27v-1.35c-6.7,12.88-18.74,19.32-36.13,19.32-10.69,0-18.97-2.54-24.83-7.63-5.86-5.09-8.79-12.08-8.79-20.97,0-17.26,11.85-27.31,35.56-30.14l15.46-1.74c6.83-.9,11.59-2.58,14.3-5.02s4.06-6.19,4.06-11.21c0-12.11-8.57-18.17-25.7-18.17-9.92,0-17.1,1.74-21.54,5.22-4.44,3.48-6.86,9.34-7.24,17.58h-10.63c.64-21.51,13.78-32.27,39.42-32.27,12.11,0,21.19,2.42,27.25,7.25,6.05,4.83,9.08,11.63,9.08,20.39v58.35c0,4.77,2.38,7.15,7.15,7.15ZM717.35,524.91c9.92,0,18.29-2.83,25.12-8.5,6.7-5.54,10.05-13.85,10.05-24.93v-15.07c-3.22,3.22-8.76,5.28-16.62,6.19l-15.46,1.93c-9.15,1.16-15.75,3.38-19.81,6.67-4.06,3.28-6.09,8.02-6.09,14.2s1.93,10.82,5.79,14.3c3.87,3.48,9.53,5.22,17,5.22Z"/>
  </g>
  <g>
    <path class="st0" d="M277.19,571.58h17.66c9.54,0,16.9,2.7,22.07,8.1,5.17,5.4,7.76,12.88,7.76,22.42s-2.63,17.09-7.89,22.46c-5.26,5.37-12.86,8.06-22.8,8.06h-16.81v-61.04ZM279.59,630.39h14.4c9.2,0,16.19-2.47,20.96-7.41s7.16-11.9,7.16-20.87-2.31-16-6.94-20.92-11.44-7.38-20.41-7.38h-15.17v56.58Z"/>
    <path class="st0" d="M368.23,630.73c.18,0,.52-.01,1.03-.04.51-.03.83-.04.95-.04v1.97c-1.03.11-1.77.17-2.23.17-2.11,0-3.66-.51-4.63-1.54-.98-1.03-1.46-2.69-1.46-4.97v-3.6c-2.86,7.32-8.92,10.97-18.17,10.97-4.4,0-7.84-1.13-10.33-3.39-2.49-2.26-3.73-5.24-3.73-8.96s1.21-6.63,3.65-8.74c2.43-2.11,6.24-3.51,11.44-4.2l7.37-.94c3.83-.51,6.4-1.39,7.72-2.62,1.31-1.23,1.97-3.19,1.97-5.87,0-6.34-4.37-9.51-13.11-9.51-5.09,0-8.8.94-11.15,2.83-2.34,1.88-3.57,4.88-3.68,9h-2.31c.11-4.68,1.54-8.17,4.29-10.46s7.03-3.43,12.86-3.43c5.09,0,8.93,1.02,11.53,3.04,2.6,2.03,3.9,4.88,3.9,8.53v27.26c0,3.03,1.37,4.54,4.11,4.54ZM343.8,631.59c5.54,0,9.93-1.5,13.16-4.5,3.22-3,4.84-7.33,4.84-12.99v-8.66c-1.31,2-4.43,3.32-9.34,3.94l-7.37,1.03c-4.46.57-7.75,1.72-9.86,3.43-2.12,1.71-3.17,4.17-3.17,7.37s1.01,5.73,3.04,7.58c2.03,1.86,4.93,2.79,8.7,2.79Z"/>
    <path class="st0" d="M394.8,587.87c1.31,0,2.23.03,2.74.09v2.23h-2.65c-5.26,0-9.33,1.64-12.22,4.93s-4.33,7.7-4.33,13.24v24.26h-2.39v-44.23h2.31v11.31c1.14-3.54,3.13-6.4,5.96-8.57,2.83-2.17,6.35-3.26,10.59-3.26Z"/>
    <path class="st0" d="M438.78,632.62h-2.74l-18.86-26.15-10.8,9.69v16.46h-2.4v-61.04h2.4v41.75l27.86-24.95h3.17l-18.52,16.63,19.89,27.6Z"/>
    <path class="st0" d="M512.16,632.62h-3l-27-33.43-13.8,12.94v20.49h-2.4v-61.04h2.4v37.63l39.95-37.63h3.26l-27.6,26.06,28.2,34.98Z"/>
    <path class="st0" d="M519.18,581.7h-2.48v-7.63h2.48v7.63ZM519.18,632.62h-2.39v-44.23h2.39v44.23Z"/>
    <path class="st0" d="M547.13,588.38v2.06h-11.74v33.26c0,4.69,2.54,7.03,7.63,7.03.57,0,1.94-.05,4.11-.17v2.06c-2.29.11-3.71.17-4.29.17-6.52,0-9.77-2.97-9.77-8.92v-33.43h-7.8v-2.06h7.8v-12.52h2.32v12.52h11.74Z"/>
    <path class="st0" d="M570.11,633.65c-5.94,0-10.66-2.09-14.15-6.26-3.48-4.17-5.23-9.8-5.23-16.89s1.77-12.75,5.32-16.97c3.55-4.11,8.23-6.17,14.06-6.17,4.74,0,8.7,1.39,11.87,4.16,3.17,2.77,5.1,6.38,5.78,10.84h-2.4c-.68-3.83-2.42-6.93-5.19-9.3-2.77-2.37-6.13-3.56-10.07-3.56-5.2,0-9.33,1.88-12.39,5.62s-4.59,8.87-4.59,15.39,1.53,11.64,4.59,15.39c3.06,3.74,7.19,5.62,12.39,5.62,4.11,0,7.57-1.31,10.37-3.95,2.85-2.68,4.57-6.03,5.14-10.03h2.4c-.63,4.63-2.57,8.46-5.83,11.49-3.32,3.08-7.35,4.63-12.09,4.63Z"/>
    <path class="st0" d="M613.65,587.35c5.03,0,8.92,1.46,11.66,4.37,2.74,2.91,4.11,7.12,4.11,12.6v28.29h-2.31v-28.03c0-4.91-1.18-8.66-3.56-11.23-2.37-2.57-5.79-3.86-10.24-3.86s-8.12,1.6-10.97,4.8c-2.85,3.2-4.32,7.8-4.37,13.8v24.52h-2.4v-61.04h2.4v27.17c1.14-3.54,3.1-6.33,5.87-8.36,2.77-2.03,6.04-3.04,9.82-3.04Z"/>
    <path class="st0" d="M676.32,610.33v.77h-36.01c.11,6.35,1.66,11.33,4.63,14.96,2.97,3.63,7.14,5.45,12.52,5.45,4.11,0,7.57-1.24,10.37-3.73s4.6-5.87,5.4-10.16h2.31c-.74,4.86-2.74,8.74-6,11.66-3.26,2.91-7.29,4.37-12.09,4.37-6.17,0-10.97-2.11-14.4-6.35-3.42-4.23-5.14-9.83-5.14-16.8s1.68-12.46,5.06-16.8c3.37-4.23,8.09-6.35,14.14-6.35s10.86,2.14,14.23,6.43c3.31,4.23,4.97,9.74,4.97,16.55ZM657.11,589.5c-5.03,0-9.01,1.73-11.96,5.19-2.94,3.46-4.55,8.22-4.84,14.27h33.52c-.23-5.94-1.8-10.67-4.72-14.19-2.91-3.52-6.91-5.27-12-5.27Z"/>
    <path class="st0" d="M702.89,587.35c5.03,0,8.92,1.46,11.66,4.37,2.75,2.91,4.12,7.12,4.12,12.6v28.29h-2.32v-28.03c0-4.91-1.18-8.66-3.56-11.23-2.37-2.57-5.78-3.86-10.24-3.86s-8.12,1.6-10.97,4.8c-2.86,3.2-4.32,7.8-4.37,13.8v24.52h-2.4v-44.23h2.31v10.63c1.2-3.66,3.19-6.52,5.96-8.57,2.77-2.06,6.04-3.09,9.82-3.09Z"/>
  </g>
  <g>
    <path class="st0" d="M805.02,483.01c.11.66.66.28,1.33.28h44.15c.56,0,3.95-3.31,5.14-5.94.49-1.08-.54-2.22-1.67-1.87-3.51,1.09-7.35,1.5-11.17,1.48-12.44-.07-24.69-6.2-24.99-19.67-.02-.77.58-1.42,1.35-1.43l7.73-.17c.72-.02,1.29-.58,1.34-1.3,2.28-37.66,29.48-70.01,68.3-70.18.77,0,1.4-.63,1.38-1.4l-.18-7.76c-.02-.73-.59-1.33-1.32-1.35-3.13-.06-5.42.89-4.99-2.98.08-.71.66-1.25,1.37-1.25h14.49c.71,0,1.3.55,1.37,1.25.4,3.72-1.79,3.1-4.8,2.99-.84-.03-1.5.69-1.42,1.53.38,4.27-.84,8.92,1.06,9.04,2.89.18,7.27.22,12.11.94,3.16.48,8.39,1.79,11.17,2.81,26.53,9.68,44.79,37.94,45.84,65.88.11.53-.18,1.93.46,1.97,5.04.25,14.8-2.05,7.16,11.7-2.41,4.34-8.21,7.68-13.41,7.45-.85-.04-1.56.66-1.46,1.5.31,2.58,1.79,5.26,1.54,7.56-.89,8.04-35.81,31.38-44.35,38.91-.25.22-.58.35-.92.35h-70.82c-.76,0-1.38.62-1.38,1.38v7.77c0,.77-.62,1.38-1.39,1.37-4.79-.07-9.65.23-14.45.02-.96-.04-2.3.17-3.58.26-1.78.13-2-2.55-.23-2.75l14.2-1.59c.7-.08,1.22-.67,1.22-1.37v-39.55c0-.76-.62-1.38-1.38-1.38h-37.3c-.76,0-1.38.62-1.38,1.38v35.51c0,.93,4.92,4.36,7.24,7.21.74.9.11,2.26-1.06,2.26l-9.02.02c-.76,0-1.38-.62-1.38-1.38l-.45-49.71c.89-.22,4.5.22,4.5.22ZM967.5,455.89c-2.23-89.77-132.94-90.07-132.8,0h132.8ZM978.04,460.1h-153.88c-.38,9.29,9.29,12.15,16.95,12.33,2.14.05,4.7.01,6.86,0,9.67-.05,20.19,0,30.4,0,21.47,0,43.8-.28,64.12,0,5.27.07,10.6-.09,15.84,0,8.68.15,16.6-.84,19.71-12.33ZM883.18,495.94h36.89c1.63,0,25.41-16.31,23.56-18.97h-30.54c6.49,23.5-26.87,3.68-29.92,18.97ZM908.48,476.97h-43.21c-2.28,0-14.51,11.22-15.38,14.13-1.39,4.68-2.03,26.08,3.03,27.73l66.72-.15,41.66-32.54c.57-5.23-.79-10.4-7.03-8.79-5.99,1.54-28.75,22.81-32.08,22.81h-40.05c-3.48,0-4.8-9.23-.19-12.84,5.48-4.29,19.42-.84,26.55-1.92v-8.42Z"/>
    <path class="st0" d="M827.62,508.85c13.8-4.61,14.38,12.07,5.61,14.26-8.09,2.02-13.07-11.77-5.61-14.26Z"/>
    <path class="st0" d="M900.03,394.77c1.08,6.49-1.78,3.29-5.16,4.22-13.02,3.58-16.82,5.06-28.37,11.78-3.37,1.96-2.69,4.71-6.47-.2,9.78-11.03,25.24-16.4,40-15.8Z"/>
  </g>
</svg>