<?xml version="1.0" encoding="UTF-8"?>
<svg id="Layer_1" xmlns="http://www.w3.org/2000/svg" version="1.1" viewBox="0 0 1000 1000">
  <!-- Generator: Adobe Illustrator 30.2.1, SVG Export Plug-In . SVG Version: 2.1.1 Build 1)  -->
  <defs>
    <style>
      .st0 {
        fill: #fff;
      }

      .st1 {
        fill: none;
        stroke: #fff;
        stroke-miterlimit: 10;
      }
    </style>
  </defs>
  <g>
    <path class="st0" d="M560.63,499.54c.05.32-.15.78-.47.91-3.23,1.33-5.97,3.17-8.1,5.93-2.32,3-3.57,6.66-3.6,10.51l-.12,14.82-.12,20.01-.12,20.3-.12,20.07-.12,20.5.03,18.94c0,6.11,3.55,11.48,8.77,14.29l2.89,1.55-.32.39h-6.28s-12.47,0-12.47,0l-2.13-.06-13.22-.06h-7.3s-14.53,0-14.53,0c-.29,0-.48-.46-.38-.52l.36-.19c2.99-1.63,5.84-3.22,7.9-6.01,2.21-3,3.55-6.61,3.56-10.51l.12-61.93-.04-16.76-57.75,86.12c-.1.14-.31.37-.37.3-.05-.05-.19-.21-.28-.34l-58.72-85.35.04,10.65.13,9.18.12,9.02.12,8.74.12,9.22.12,8.79.12,9.02.12,8.73.14,5.85c.15,6.17,3.64,11.57,9.05,14.51l3.22,1.75c-1.28.21-2.17.29-3.29.3l-8.34.09-8.54.12-7.78.12-7.59.12-14.33.25c-2.41.04-4.69.16-7.32-.07,3.66-2.1,6.73-3.83,8.89-7.24,1.76-2.78,3.02-6.09,2.96-9.62l-1.98-113.16c-.15-8.48-4.7-14.36-12.28-17.28l-.08-.48c-.01-.07.26-.13.35-.13l27.39-.46,7.61-.12,8.34-.09c1.61-.22,3.11-.25,4.77,0l56.68,82.81,54.91-82.34c.31-.46.46-.8.57-1.15h48.72Z"/>
    <path class="st0" d="M989.27,579.7v8.4c-.09.21-.18.6-.21.91l-.24,2.71c-1.55,17.29-9.29,33.16-21.9,45.08-6.34,5.99-13.51,10.83-21.41,14.59-31.1,14.8-70.21,12.44-99.21-6.21-21.95-14.12-35.4-36.61-35.03-63.09.12-8.38,1.39-16.44,4.22-24.34,8.96-25.06,31.22-41.38,56.42-47.88,19.59-5.05,40.21-4.45,59.49,1.71,30.03,9.6,54.33,32.58,57.5,65.08.11,1.12.16,2.1.38,3.04ZM926.78,624.09c6.31-2.98,11.85-6.98,16.46-12.04,13.64-14.97,14.43-37.6,1.71-53.38-3.52-4.37-7.64-8.16-12.48-11.27-17.38-11.17-38.72-13.49-57.83-5.12-5.48,2.4-10.31,5.65-14.56,9.6-16.48,15.28-18.26,40.59-4.13,58.08,4.99,6.18,11.34,11.09,18.68,14.54,16.69,7.85,35.59,7.42,52.16-.41Z"/>
    <path class="st0" d="M10.31,515.62v-.72l58.97-3.42c-2.75,2.22-5.41,3.15-7.26,5.69-3,3.46-4.36,7.93-4.09,12.68l5.68,100.05,25.91-1.42,33.1-1.71c12.91-.21,25.79-4.58,34.78-13.98.17-.18.51-.31.7-.27s.45.52.4.73l-10.1,42.49c-42.03,1.99-83.91,4.23-125.88,6.86-1.19.07-1.9.23-3.23-.06l2.97-1.91c4.82-3.1,8.42-8.78,8.05-14.98l-6.97-114.37c-.46-7.47-6.07-13.94-13.01-15.65Z"/>
    <path class="st0" d="M293.18,644.85c-27.45,13.15-61.23,13.51-88.76.47-22.93-10.86-39.5-30.31-43.35-55.76-3.42-22.55,2.7-44.36,18.52-60.94,8.11-8.5,18.03-15.14,28.89-19.77,23.53-10.02,50.16-11.16,74.49-3.27,10.03,3.25,19.36,8.1,27.62,14.57,8.65,6.77,15.64,15.21,20.45,25.07,4.86,9.95,7,20.78,7.04,31.83.12,30.56-17.98,54.91-44.9,67.8ZM302.88,578.76c.44-11.21-3.59-21.71-11.24-29.85-10.34-10.99-25.68-16.97-40.66-17.63-16.99-.75-34.24,6.05-45.35,18.96-13.28,15.44-13.73,38.07-1.12,54.05,10.55,13.37,28.07,20.39,45.1,19.8,25.36-.88,52.21-18.05,53.28-45.33Z"/>
    <path class="st0" d="M755.97,651.78l-24.29-.75-33.03-1c3.4-1.99,6.21-3.16,8.47-5.96s4.04-6.57,4.15-10.57l2.78-100.98-26.71-.72c-12.62-.34-24.79,3.27-34.6,11.18l-.53.28c-.14.07-.53-.31-.31-1l12.93-41.05,134.68,3.91,10.48,41.63c.08.32.05.88-.11,1.05-.15.17-.55-.1-.84-.33-8.6-7.61-19.37-12.46-31.01-12.88l-29.49-1.08-3.15,99.42c-.16,5.08,1.02,9.68,4.39,13.48,1.69,1.9,4.7,3.89,6.68,4.76.15.07.23.62.14.62h-.65Z"/>
    <path class="st0" d="M581.97,647.38c6.91-2.68,11.67-8.82,11.82-16.32l.13-6.87.12-10.17.12-9.94.12-10.22.12-9.94.12-9.98.12-9.98.12-10.18.12-9.98.12-10.18.12-9.93c.03-2.47.12-4.83,0-7.29-.28-6.05-3.41-11.39-8.67-14.35l-3.38-1.9c2.3-.62,4.28-.26,6.49-.23l17.84.19,5.09.16,29.92.55c-2.97,1.89-5.56,2.78-7.74,5.14-2.83,3.08-4.8,7.07-4.87,11.5l-1.88,112.83c-.07,4.41.91,8.41,3.49,11.89,3.14,4.23,7.13,5.38,8.09,6.3.08.08-.33.35-.48.35l-9.91-.17-8.01-.12-8.01-.12-8.54-.12-8.87-.12-11.04-.14-2.83-.06.16-.59Z"/>
  </g>
  <path class="st0" d="M506.88,691.38c108.51,0,217.02,0,325.54.02,5.68,0,11.47-.39,17.01.58,12.66,2.2,19.52,14.72,11.21,24.07-10.3,11.58-22.85,24.78-36.82,28.71-33.55,9.45-68.3,18-102.91,19.65-152.28,7.26-304.69,9.31-456.88-2.44-24.95-1.93-50.28-7.45-73.82-15.86-13.9-4.97-26.73-17.2-36.2-29.21-9.89-12.53-2.62-23.91,13.41-25.36,3.59-.32,7.23-.16,10.84-.16,109.55,0,219.09,0,328.64,0Z"/>
  <path class="st0" d="M273.79,338.74c-4.38-9.4-8.76-18.79-14.2-30.48,8.17-3.16,15.93-6.48,23.9-9.16,9.77-3.29,20.1-5.18,29.53-9.2,30.77-13.1,52.67-1.06,70.67,23.52,1.42,1.94,3.19,3.63,4.8,5.43,1.35-.77,2.7-1.54,4.04-2.3-6.38-12.05-12.76-24.1-19.94-37.64,4.99-1.47,9.6-3.38,14.39-4.12,10.19-1.58,20.72-1.54,30.67-3.96,40.26-9.76,68.98,6.14,89.99,40.26,1.15-.57,2.31-1.14,3.46-1.72-2.12-6.61-3.56-13.54-6.54-19.73-3.22-6.68-7.88-12.66-13.56-21.51,55.97-4.18,106.57-3.84,136.93,52.62,1.39-1.24,2.79-2.48,4.18-3.72-5.12-12.23-10.24-24.46-15.34-36.64,29.64-15,102.81,19.23,133.05,60.19-2.19-9.61-4.38-19.22-7.49-32.87,43.53,18.39,83.31,36.69,108.89,75.51,6.97,10.58-1.25,21.44-15.39,20.46-22.63-1.57-45.17-4.56-67.72-7.13-144.04-16.43-288.41-19.25-432.94-9.02-53.51,3.79-106.81,10.46-160.21,15.8-2.57.26-5.38,1.13-7.68.42-6.02-1.87-15.15-3.04-16.86-7.11-2.18-5.16-.22-14.35,3.42-19.2,7.35-9.78,16.24-18.85,25.96-26.3,12.22-9.38,25.53-17.51,39.04-24.99,24.48-13.56,28.59-12.46,46.75,9.3,1.59,1.9,1.94,4.84,2.86,7.3,1.79-1.34,3.57-2.67,5.36-4.01Z"/>
  <g>
    <path class="st0" d="M223.29,415.15h33.94v8.37h-24.41v16.2h21.93v7.36h-21.93v16.51h25.26v8.45h-34.8v-56.88Z"/>
    <path class="st0" d="M276.38,415.15h9.61v48.44h26.27v8.45h-35.88v-56.88Z"/>
    <path class="st0" d="M376.74,444.68c0-19.53,10.46-30.61,25.57-30.61,5.66,0,10.15,1.16,13.64,3.1l1.47,9.92c-4.03-2.87-8.52-3.95-13.48-3.95-10.85,0-17.36,8.06-17.36,20.62,0,14.72,8.22,20.38,17.28,20.38,4.57,0,9.3-.85,13.95-3.8l-1.16,9.53c-4.42,2.4-9.07,3.25-14.72,3.25-12.79,0-25.19-7.98-25.19-28.44Z"/>
    <path class="st0" d="M433.31,415.15h9.61v48.44h26.27v8.45h-35.88v-56.88Z"/>
    <path class="st0" d="M481.98,450.03v-34.88h9.53v35.5c0,10.62,3.95,13.72,10.31,13.72s10.46-3.49,10.46-14.57v-34.64h9.53v34.33c0,16.74-7.98,23.56-20.54,23.56s-19.3-5.5-19.3-23.02Z"/>
    <path class="st0" d="M554.75,472.04h-18.83v-56.88h17.28c12.17,0,18.75,5.19,18.75,14.73,0,5.89-2.17,10.69-9.69,13.1,9.3,1.63,12.4,6.59,12.4,13.49,0,10.77-7.6,15.58-19.92,15.58ZM551.65,440.19c7.44,0,10.93-2.48,10.93-8.52s-3.8-8.68-11.24-8.68h-5.81v17.21h6.12ZM553.28,464.21c7.83,0,11.32-2.56,11.32-8.99,0-5.89-4.03-8.29-11.7-8.29h-7.36v17.28h7.75Z"/>
    <path class="st0" d="M639.69,415.15h17.36c17.36,0,23.95,11,23.95,27.98s-7.67,28.91-23.95,28.91h-17.36v-56.88ZM655.5,463.59c10.85,0,15.5-6.74,15.5-20.31s-4.11-19.68-15.42-19.68h-6.36v39.99h6.28Z"/>
    <path class="st0" d="M694.1,415.15h33.94v8.37h-24.41v16.2h21.93v7.36h-21.93v16.51h25.26v8.45h-34.8v-56.88Z"/>
    <path class="st0" d="M747.18,415.15h9.61v48.44h26.27v8.45h-35.88v-56.88Z"/>
  </g>
  <g>
    <path class="st0" d="M472.71,847.76h-21.87v-4.38h8.98v-20.14c-1.43,2.21-4.56,3.51-8.72,3.51v-4.17c4.21,0,7.25-2.04,9.16-6.64h4.6v27.43h7.85v4.38Z"/>
    <path class="st0" d="M489.33,847.84h-6.68c4.82-4.51,8.03-8.29,10.11-11.54-.43.04-.78.04-1.17.04-8.68,0-12.5-4.34-12.5-9.85,0-7.42,5.21-10.94,10.89-10.94s11.11,2.91,11.11,11.5c0,5.86-2.26,11.11-11.76,20.79ZM492.71,832.7c.61,0,1.26,0,1.95-.09.87-2.04,1.21-3.82,1.21-5.47,0-5.42-2.82-7.25-5.77-7.25-3.43,0-5.81,2.65-5.81,6.29,0,3.08,1.56,6.51,8.42,6.51Z"/>
    <path class="st0" d="M519.54,848.28c-7.03,0-11.37-3.47-11.37-9.2,0-3.25,1.65-5.77,4.82-7.38-2.21-1.52-3.34-3.99-3.34-7.12,0-5.73,3.99-9.33,10.5-9.33,6.16,0,9.89,3.38,9.89,8.9,0,2.91-1.26,5.47-3.82,7.12,3.69,1.61,4.95,4.38,4.95,7.51,0,5.73-4.3,9.5-11.63,9.5ZM519.67,844.15c4.08,0,6.42-2.13,6.42-5.69,0-2.47-1.52-4.25-5.51-4.82l-3.82-.52c-2.43,1.26-3.52,2.99-3.52,5.34,0,3.65,2.56,5.69,6.42,5.69ZM522.44,830.27c1.78-1.3,2.73-3.12,2.73-5.29,0-3.69-2.04-5.55-5.25-5.55s-5.42,2-5.42,5.64c0,2.82,1.69,4.21,4.34,4.64l3.6.56Z"/>
    <path class="st0" d="M549.35,848.19c-5.51,0-11.11-2.91-11.11-11.5,0-5.86,2.26-11.11,11.76-20.79h6.68c-4.82,4.51-8.03,8.29-10.07,11.54.39-.04.74-.04,1.13-.04,8.68,0,12.5,4.34,12.5,9.85,0,7.42-5.16,10.94-10.89,10.94ZM549.26,843.85c3.38,0,5.77-2.65,5.77-6.29,0-3.08-1.56-6.55-8.42-6.55-.61,0-1.26.04-1.95.13-.87,2.04-1.21,3.82-1.21,5.47,0,5.42,2.86,7.25,5.81,7.25Z"/>
  </g>
  <path class="st1" d="M471.88,151.33c-5.5,18.59-3.26,30.06,0,37.2,1,2.2,1.83,3.38,2.8,6,4.33,11.64,1.09,23.39-2.4,31.6"/>
  <path class="st1" d="M511.74,151.33c-5.5,18.59-3.26,30.06,0,37.2,1,2.2,1.83,3.38,2.8,6,4.33,11.64,1.09,23.39-2.4,31.6"/>
  <path class="st1" d="M550.3,151.33c-5.5,18.59-3.26,30.06,0,37.2,1,2.2,1.83,3.38,2.8,6,4.33,11.64,1.09,23.39-2.4,31.6"/>
</svg>